<svg xmlns="http://www.w3.org/2000/svg" viewBox="0 0 128.27 31.02"><defs><style>.cls-1{fill:#d35757;}</style></defs><g id="Layer_2" data-name="Layer 2"><g id="Layer_1-2" data-name="Layer 1"><path class="cls-1" d="M0,29c0-.6,0-1.11,0-1.54s.05-1,.11-1.76V13.17c0-.06.13-.13.39-.24a7.44,7.44,0,0,0,.87-.42,3.24,3.24,0,0,0,.88-.73,1.68,1.68,0,0,0,.39-1.14V8.79a5.5,5.5,0,0,0-.19-1.5A4.13,4.13,0,0,0,1.84,6,4.83,4.83,0,0,0,.6,4.85s-.08,0-.17-.13L.34,4.63V2.57a.29.29,0,0,1,.13-.25,1.05,1.05,0,0,1,.26-.13q4,0,8.15-.11C11.65,2,14.42,2,17.16,2a1.14,1.14,0,0,1,.45.11.37.37,0,0,1,.24.37V5.32c0,.14-.14.29-.41.45s-.58.35-.92.58a4,4,0,0,0-.93.86,2,2,0,0,0-.4,1.28c0,.12,0,.37,0,.76s0,.82,0,1.3a18.56,18.56,0,0,0,.11,2c.07.64.27,1,.58,1.14.49.05.87.09,1.14.1s.61,0,1,0,.64,0,1.07,0a8.06,8.06,0,0,0,1.29-.13,8.62,8.62,0,0,0,1.24-.3,2.75,2.75,0,0,0,1-.53,3.6,3.6,0,0,0,.58-.73c.21-.35.42-.69.64-1a9.28,9.28,0,0,1,.62-.9c.2-.26.37-.39.52-.39l.62,0,1.31.07c.54,0,1.17,0,1.88,0l.22.26v.13a.33.33,0,0,0,0,.12.29.29,0,0,1,0,.09c0,.14,0,.29,0,.43a.93.93,0,0,1-.15.43c-.14,2.6-.24,5.15-.28,7.66s-.06,5-.06,7.65V29.6a.68.68,0,0,1-.48.6H26.69q-3.66,0-7.21-.06t-7.21-.07c-1.89,0-3.78,0-5.68.07s-3.8.06-5.69.06a2.16,2.16,0,0,1-.51,0,.82.82,0,0,1-.39-.3ZM7.85,17.29c0,.09.12.13.26.13A.28.28,0,0,0,8,17.16Zm.22,3.13c0,.14,0,.23.12.26a.24.24,0,0,0,.18-.26Zm.72.47v-.08H8.71Zm1-3a.49.49,0,0,0-.38.19.58.58,0,0,0-.17.41C9.64,18.45,9.82,18.25,9.82,17.85Zm-.55,3.86a.48.48,0,0,0,.21.38l.3.26h.13l.6-.34a.7.7,0,0,0-.43-.26,2.71,2.71,0,0,0-.47,0Zm.13-2.32A.52.52,0,0,0,9.91,19l-.51.26Zm.12.9c0,.09.12.13.26.13h.13a.28.28,0,0,0-.26-.13ZM10,24.67a.53.53,0,0,0-.17.47v.39c.14,0,.23-.06.25-.18a1.27,1.27,0,0,0,.05-.34,1.83,1.83,0,0,0,0-.21C10.13,24.71,10.1,24.67,10,24.67Zm.08-5.32.39-.13h-.39Zm0,3.56c0,.26.09.38.26.38s.26.12.26.35v.17l.21-.13v-.6c0-.06-.1-.1-.32-.13Zm.13-2.23a.36.36,0,0,0,.05.13c0,.05,0,.08.08.08s.17-.14.17-.34h-.3Zm.6-1.59s-.1,0-.12.19a2.48,2.48,0,0,0-.05.45c.2,0,.3-.08.3-.25A.53.53,0,0,0,10.85,19.09Zm.39,3-.28,0c-.13,0-.21.07-.23.15h.51Zm-.51,3.56a.34.34,0,0,0,.6-.13.27.27,0,0,0-.22-.13A.47.47,0,0,0,10.73,25.61Zm.6-1.84a0,0,0,0,0-.05-.05s0,0,0,.05,0,.13,0,.13l.05-.09Zm0-4.08h.13v-.13h-.13Zm.38,2.45.13-.13-.13-.13-.13.13Zm-.13,3.47h.13l-.13-.13Zm.73-3.47.13-.13h-.26Zm.26-1.46a2.18,2.18,0,0,0,.09.32c.05.19.11.28.17.28h.08a.36.36,0,0,1,.26-.13V21a.45.45,0,0,1-.17-.3l-.09-.17Zm.09,1.67.12-.13h-.12Zm.12.39A.19.19,0,0,0,13,23h0s.06,0,.09-.08a.3.3,0,0,0,0-.13Zm1.33-3.18h.13v-.08Zm3.22,4.12a.58.58,0,0,0,.11.43.75.75,0,0,0,.45.09C17.89,23.85,17.7,23.68,17.33,23.68Zm.9-1.67a.43.43,0,0,0,.39.26c0-.18-.12-.26-.34-.26Zm.6-.39a1.8,1.8,0,0,1,.18.2.24.24,0,0,0,.21.1c0-.2-.09-.3-.26-.3Zm.22.6v-.08H19Z"/><path class="cls-1" d="M29.94,9.52a11.47,11.47,0,0,1,2-5.1,9.85,9.85,0,0,1,3.58-2.88A14.88,14.88,0,0,1,40.31.28,51.16,51.16,0,0,1,45.82,0a37.78,37.78,0,0,1,7.61.64A9.94,9.94,0,0,1,58.32,3a9.65,9.65,0,0,1,2.6,4.74,32.86,32.86,0,0,1,.77,7.83v3.26q-.51,5.72-3.41,8.41C56.35,29,53.47,30,49.64,30H41.91a11.73,11.73,0,0,1-6.39-1.51,10,10,0,0,1-3.6-3.94,16.35,16.35,0,0,1-1.61-5.6,56.93,56.93,0,0,1-.37-6.46Zm5.93,2.32H36a.56.56,0,0,0,.22-.06.48.48,0,0,1,.26-.07v-.13h-.6Zm1.8,1.55q0,.21.3.36a4.2,4.2,0,0,1,.43.24V13.9a.47.47,0,0,0-.28-.41,2.33,2.33,0,0,0-.45-.19Zm.47-1.21v-.12h-.09Zm-.09,5.45h.13a.27.27,0,0,0-.13-.25Zm.82-7.16a.21.21,0,0,0-.22.17h.22Zm-.22,1.16a.21.21,0,0,0,.22-.13.78.78,0,0,0,0-.26h-.26Zm.22,3.47c0,.17.06.26.17.26a.51.51,0,0,0,.26-.07.21.21,0,0,0,.13-.19ZM39,16.77l.13-.12H39Zm.25,3.65c0,.17.16.26.39.26a1,1,0,0,0,.21,0,.17.17,0,0,0,.13-.18c0-.11-.1-.17-.3-.17A.58.58,0,0,0,39.25,20.42Zm.13-.86h.47c0-.08-.07-.13-.12-.13h-.35Zm.09-2.06h.13v-.12h-.13ZM40,18.58v-.09h-.13ZM40.2,14c-.12,0-.19,0-.22.12h.22Zm0-1.89c-.06.06-.1.08-.13.08v.13c.09,0,.13,0,.13-.13Zm0,.68h.13V12.7Zm.38,4.68a.28.28,0,0,0-.21.11l-.17.19v.13l.28-.15C40.55,17.7,40.58,17.6,40.58,17.46Zm.09-2v-.12h-.09Zm0,2.19c-.06,0-.09,0-.09.13s0,.13.09.13.09,0,.09-.13S40.73,17.63,40.67,17.63Zm.26-2.53h.13L40.93,15Zm.13,2.79h.12a.12.12,0,0,1,.13-.13c0-.09,0-.13-.13-.13a.34.34,0,0,0-.25.13Zm0-4.59h.12l-.12-.13Zm.25,8.79a.31.31,0,0,0,0,.13.58.58,0,0,1,0,.13h.3l.32,0q.15,0,.24-.24A1.3,1.3,0,0,0,42,22a1.42,1.42,0,0,0-.3,0h-.15C41.38,22,41.31,22,41.31,22.09Zm.6-10.42a.23.23,0,0,0-.25.17h.25Zm0-.22h.22L42,11.37Zm.22.61c0,.08,0,.12-.13.12v.13l.26-.25Zm0,9.09.13,0a.31.31,0,0,0,.13,0l0,0c.06,0,.12-.09.19-.28a1.38,1.38,0,0,0,.11-.36v0l-.09-.09Zm.13-5.45a.65.65,0,0,1,.36.2,2.6,2.6,0,0,1,.24.27v-.55c0-.12-.06-.18-.17-.18A.5.5,0,0,0,42.26,15.7ZM42.39,17q0,.21.3.21c0-.14-.1-.23-.3-.26Zm.34-3.56H43a.21.21,0,0,0-.17-.22Zm.39-1.55s-.06,0-.09.09a.27.27,0,0,0,0,.13v.08l.34-.17,0-.09Zm-.09,10a.54.54,0,0,0,.3.51.65.65,0,0,1,0-.11.2.2,0,0,0,0-.1C43.37,21.94,43.26,21.84,43,21.84Zm.09-8.93.12-.13h-.12Zm.64,4.68a.33.33,0,0,0-.34.24,1.2,1.2,0,0,0-.09.45.33.33,0,0,0,.34-.24A1.29,1.29,0,0,0,43.76,17.59Zm-.43,2.53q0,.14.15.15a1.15,1.15,0,0,0,.24,0,1.11,1.11,0,0,0,.23,0c.1,0,.15-.08.15-.19l0,0a.74.74,0,0,1-.22-.05c-.08,0-.12-.06-.12-.08h-.13a.4.4,0,0,1-.26.13ZM43.46,12c-.06,0-.09,0-.09.13s0,.08.09.08.08,0,.08-.08S43.52,12,43.46,12Zm.13,4.2.13-.13h-.13Zm0,2.54c0,.17.07.25.21.25a.28.28,0,0,0,.26-.13.49.49,0,0,0-.34-.12Zm.25-6.14.35-.13v-.13l-.35-.13-.12.13v.13Zm0,2.27a.31.31,0,0,0-.12.26v.13c.08,0,.12-.11.12-.26Zm.48.39h.13V15h-.13Zm.94-1.37c-.11,0-.19,0-.21.13h.21Zm-.13-2.19a.77.77,0,0,0,.11.39,1.16,1.16,0,0,1,.15.38c.09,0,.13,0,.13-.13v0a4.26,4.26,0,0,0,0-.47.81.81,0,0,0-.22-.43C45.17,11.37,45.13,11.47,45.13,11.67Zm7.64,10.42a6.39,6.39,0,0,1,.26.82,2.35,2.35,0,0,0,.25.69,1.47,1.47,0,0,0,.47.49,1.69,1.69,0,0,0,.91.19,1.48,1.48,0,0,0,1.11-.45,3.27,3.27,0,0,0,.69-1.11,6,6,0,0,0,.34-1.4A10.49,10.49,0,0,0,56.89,20V13.9a15.12,15.12,0,0,0-.2-2,17.46,17.46,0,0,0-.6-2.68A8.29,8.29,0,0,0,55,6.89a2,2,0,0,0-1.67-1c-1,0-1.55.54-1.55,1.63s0,2.29.15,3.43.22,2.29.34,3.45.25,2.31.35,3.46.15,2.29.15,3.43Z"/><path class="cls-1" d="M63.15,17.76c0-1.46,0-2.9.11-4.33a26.56,26.56,0,0,1,.51-4.1A16.52,16.52,0,0,1,65,5.73,8.78,8.78,0,0,1,70.29,1,14.16,14.16,0,0,1,75,.3h7.64a15.83,15.83,0,0,1,5,.77,12.25,12.25,0,0,1,4.08,2.25A10.65,10.65,0,0,1,94.4,6.93a11.1,11.1,0,0,1,1,4.87c0,.54,0,1,0,1.35s0,.84-.11,1.44a.4.4,0,0,1-.4.23c-.22,0-.44,0-.67,0s-.55,0-1,.05-.85,0-1.29,0a7.26,7.26,0,0,1-1.22-.15,1.3,1.3,0,0,1-.78-.43v-.47c0-.69,0-1.38.07-2.08s.06-1.4.06-2.08v-2A.69.69,0,0,0,89.73,7a1.89,1.89,0,0,0-.84-.19,1.62,1.62,0,0,0-1.37.82,7.62,7.62,0,0,0-1,2.1A22.5,22.5,0,0,0,86,12.57q-.24,1.54-.36,3c-.09,1-.15,1.85-.17,2.64s0,1.35,0,1.7V21c0,.48,0,1,.07,1.63a8.7,8.7,0,0,0,.28,1.72,3.41,3.41,0,0,0,.66,1.35,1.53,1.53,0,0,0,1.22.53,1.2,1.2,0,0,0,1.08-.64,5.05,5.05,0,0,0,.57-1.65,15.66,15.66,0,0,0,.26-2.19c0-.79.07-1.52.07-2.21v-1.8c0-.55,0-.86.13-.95a.68.68,0,0,1,.47-.12,14.14,14.14,0,0,1,2.08.15,19.59,19.59,0,0,0,2.08.19.42.42,0,0,1,.21.32,2.63,2.63,0,0,1,0,.49c0,.81,0,1.74,0,2.79a20.58,20.58,0,0,1-.34,3.2,13,13,0,0,1-.94,3,5.55,5.55,0,0,1-1.85,2.28A7.62,7.62,0,0,1,89,30.31c-.82.21-1.69.45-2.6.71H78Q74.47,30.5,71.71,30A12.53,12.53,0,0,1,67,28.14a7.82,7.82,0,0,1-2.89-3.69A18.07,18.07,0,0,1,63.15,17.76Zm6.52-.17a.12.12,0,0,0,.13.13c.2,0,.3-.09.3-.26h-.24A.18.18,0,0,0,69.67,17.59Zm0-4.38c0,.15.08.23.24.26a2,2,0,0,0,.36,0c0-.14-.07-.22-.23-.25A2.24,2.24,0,0,0,69.71,13.21Zm.09,6.44a.12.12,0,0,0,.13.13v-.13l-.13-.13ZM69.93,13l.17,0s0-.05,0-.05,0,0,0,0h-.08Zm.21,1.93.13-.13a.25.25,0,0,0-.21-.13s0,0,0,0,0,0,0,0h0Zm-.21.86a.66.66,0,0,0,.21.47v-.09s0,0,0,0,0,0,0,0c0-.2-.08-.3-.22-.3Zm.51-3.48c-.2.12-.3.2-.3.26v.09a1.06,1.06,0,0,0,.45-.09.34.34,0,0,0,.2-.34l-.05-.05Zm0-2.19.13-.12H70.4ZM70.66,21l0,0a.4.4,0,0,1,.17-.36.35.35,0,0,0,.17-.33.9.9,0,0,0-.34.18,1.09,1.09,0,0,0-.3.25ZM71,10.42c-.06,0-.14.06-.26.18H71Zm-.26,2.71h.65V13h-.65Zm.13,1.93v-.13h-.13Zm.26,1.71A.92.92,0,0,0,71,17a.73.73,0,0,1-.22.24l.13.13H71a.62.62,0,0,0,.19-.18l.2-.21ZM71,22c.2.11.43.22.69.34a1.84,1.84,0,0,0,.73.17c0-.17-.15-.34-.43-.51a1.42,1.42,0,0,0-.69-.26C71.1,21.71,71,21.79,71,22Zm.39-11.37a.35.35,0,0,0-.26.13h.47c0-.09,0-.13-.13-.13Zm0,8.62a.12.12,0,0,0,0,.09h.13c0-.09,0-.13-.13-.13h-.08Zm0-5.75q0,.21.39.39v-.13C71.86,13.56,71.73,13.47,71.47,13.47Zm0,2.66h.26l0,0A.14.14,0,0,1,71.6,16h-.13Zm.13-.81h.13l-.13-.13Zm.26,1.33c0,.2.08.3.26.3,0-.2-.08-.3-.22-.3Zm.08-9.91c0,.2,0,.31.13.34V6.74Zm.56,12.18c-.17,0-.27,0-.3.13h.13a.89.89,0,0,0,.39-.13Zm.09,5.83a.42.42,0,0,0-.26.11.33.33,0,0,0-.13.24h.52s0-.1,0-.2S72.64,24.75,72.59,24.75ZM72.33,7.81h.26l-.13-.13Zm.39,10.51.08-.13h-.08Zm0,1.8h.08v-.21h-.08Zm.21-9.35a.58.58,0,0,0,.39.56v-.69a.43.43,0,0,0-.13-.3c-.15.06-.22.12-.24.19A1.66,1.66,0,0,0,72.93,10.77Zm.13,8.54h.26l-.13-.13h-.13Zm.13,3.26h.13l-.13-.13Zm.47-1.85a.31.31,0,0,0-.3.22,1.07,1.07,0,0,0-.09.43v.17s0,0,0,0l.6-.64C73.92,20.79,73.83,20.72,73.66,20.72Zm-.26-.47h.13l-.13-.13Zm.13,2.92a.29.29,0,0,0-.13.25h.13Zm0-10.94c0,.4.17.6.52.6a.65.65,0,0,0-.15-.41A.46.46,0,0,0,73.53,12.23Zm.39,9.44c-.15,0-.23,0-.26.17h.26Zm-.13-4.21h.13v-.08Zm.26-2.75v-.12h-.13Zm.34,7.13a.2.2,0,0,0-.15.19,1.15,1.15,0,0,0,0,.24.27.27,0,0,0,.3-.3C74.52,21.88,74.48,21.84,74.39,21.84Zm-.17,1c0,.31.14.47.43.47C74.65,23,74.5,22.87,74.22,22.87Zm0-9.14a.12.12,0,0,0,.13.13.4.4,0,0,0,.26-.13.12.12,0,0,0-.13-.13A.36.36,0,0,0,74.26,13.73Zm0,5.79h.13v-.09Zm.13,1.93c-.06,0-.09,0-.09.13s0,.13.09.13.09,0,.09-.13S74.45,21.45,74.39,21.45Zm0-6.26h.13l-.13-.13Zm.26-1v-.09h-.13Zm0,3.05v-.13h-.13Zm.08,5.19s0,0,0,.08,0,.05,0,.05l-.05,0,.05.08v0s0-.08.13-.17Zm0-6.65h.13v-.13h-.13Zm.13,9.05a.5.5,0,0,0,.56.56v-.3a1.82,1.82,0,0,0,0-.37c0-.1-.12-.15-.26-.15A.23.23,0,0,0,74.86,24.84ZM75,20.76h.13L75,20.64Zm.6-2.57.13-.34h-.34c-.06,0-.1,0-.13.13Zm-.17-10.3a.44.44,0,0,0,.19.37.67.67,0,0,0,.41.15h0c.09,0,.13,0,.13-.13V8.19A1.13,1.13,0,0,0,75.42,7.89Zm0,14.85a.74.74,0,0,0,.22,0,.28.28,0,0,0,.17-.12h-.39Zm.26-13a.46.46,0,0,0,.06.28.29.29,0,0,1,.07.23v.09a1.23,1.23,0,0,0,.26-.22,1.49,1.49,0,0,0,.21-.25v0s0,0,0,0,0,0,0,0Zm.34,11.63a.2.2,0,0,0,.13.21.2.2,0,0,0,.17-.21Zm.13,2.27c.12,0,.17-.12.17-.26a.41.41,0,0,0-.3.13Zm.13-8v-.13h-.13Zm.26-5.54c0,.06.07.14.13.24a.26.26,0,0,0,.25.15.46.46,0,0,0-.38-.51Zm.13,12.32.08-.13h-.08Zm.34.6a.23.23,0,0,0-.17.25.35.35,0,0,0,.3-.12Zm-.13-6.18h.13v-.09ZM77,15.44a1.62,1.62,0,0,0,0,.3.44.44,0,0,0,.15.3l.13-.12a1.38,1.38,0,0,1,0-.26c0-.12,0-.19,0-.22Zm0,8.8s0,.09.13.17a2.06,2.06,0,0,0,.21.21h.13l.13-.12v-.9a.78.78,0,0,0-.39.21.55.55,0,0,0-.25.39Zm.13-7a.47.47,0,0,1,.13.23.16.16,0,0,0,.17.15l0,0v-.13c0-.17-.07-.26-.21-.26s0,0,0,0,0,0,0,0Zm0,5.06.17.19a.28.28,0,0,0,.21.11c0-.2-.08-.3-.25-.3Zm.34-7.6v-.12h-.13ZM77.65,16c-.11,0-.19,0-.21.13a.8.8,0,0,0,0,.26h.26Zm-.26,7.29.13.13c0-.17.06-.25.17-.25a.55.55,0,0,1,.28.06.67.67,0,0,0,.32.06c0-.25-.11-.38-.34-.38a1.35,1.35,0,0,0-.34.06c-.15.05-.22.13-.22.24Zm.43-11.41a.27.27,0,0,0-.3.3A.27.27,0,0,0,77.82,11.88Zm-.17,1.38h.13c0-.09,0-.13-.13-.13h-.13Zm.26,5.79H78a.4.4,0,0,0-.13-.26Zm.21,3a.19.19,0,0,0-.21.13h.21ZM78,17.12h.08a.12.12,0,0,0,.13-.13l-.13-.13Zm.08.73c0,.2.14.3.43.3,0-.06,0-.15,0-.26a.18.18,0,0,0-.19-.17h-.09Zm.26,3.6c-.14,0-.23,0-.26.13h.26Zm0,2.92.13-.13v0c0-.23-.09-.35-.26-.35,0,0,0,0,0,0h-.09Zm.6-3a.74.74,0,0,0-.34.47h.08a.55.55,0,0,0,.39-.39Zm1.07-10.22c-.17,0-.25.1-.25.3h.25Zm0-.47a.2.2,0,0,0-.21.17h.21Zm-.21,2.49a.2.2,0,0,0,.21-.17h-.21ZM80,12.4h.08v-.13Zm.08-.47v.13l.13-.13V11.8Zm1.85,3a.08.08,0,0,0-.09.09,0,0,0,0,0,0,0c.06,0,.09,0,.09,0Z"/><path class="cls-1" d="M96.53,9.52a11.35,11.35,0,0,1,2-5.1,9.88,9.88,0,0,1,3.59-2.88A14.75,14.75,0,0,1,106.89.28,51.29,51.29,0,0,1,112.4,0,38,38,0,0,1,120,.64,10,10,0,0,1,124.91,3a9.63,9.63,0,0,1,2.59,4.74,32.35,32.35,0,0,1,.77,7.83v3.26q-.51,5.72-3.41,8.41C122.93,29,120.05,30,116.22,30H108.5a11.77,11.77,0,0,1-6.4-1.51,10,10,0,0,1-3.6-3.94,16.35,16.35,0,0,1-1.61-5.6,57,57,0,0,1-.36-6.46Zm5.92,2.32h.13a.57.57,0,0,0,.21-.06.51.51,0,0,1,.26-.07v-.13h-.6Zm1.8,1.55q0,.21.3.36A4.2,4.2,0,0,1,105,14V13.9a.47.47,0,0,0-.28-.41,2.33,2.33,0,0,0-.45-.19Zm.47-1.21v-.12h-.09Zm-.09,5.45h.13a.27.27,0,0,0-.13-.25Zm.82-7.16a.2.2,0,0,0-.21.17h.21Zm-.21,1.16a.2.2,0,0,0,.21-.13.78.78,0,0,0,0-.26h-.25Zm.21,3.47c0,.17.06.26.17.26a.51.51,0,0,0,.26-.07.21.21,0,0,0,.13-.19Zm.13,1.67.13-.12h-.13Zm.26,3.65c0,.17.15.26.38.26a1.15,1.15,0,0,0,.22,0,.18.18,0,0,0,.13-.18c0-.11-.11-.17-.3-.17A.55.55,0,0,0,105.84,20.42Zm.12-.86h.48c0-.08-.07-.13-.13-.13H106Zm.09-2.06h.13v-.12h-.13Zm.52,1.08v-.09h-.13Zm.21-4.59c-.11,0-.19,0-.21.12h.21Zm0-1.89c-.06.06-.1.08-.13.08v.13c.09,0,.13,0,.13-.13Zm0,.68h.13V12.7Zm.39,4.68a.28.28,0,0,0-.22.11l-.17.19v.13l.28-.15A.31.31,0,0,0,107.17,17.46Zm.08-2v-.12h-.08Zm0,2.19c-.06,0-.08,0-.08.13s0,.13.08.13.09,0,.09-.13S107.31,17.63,107.25,17.63Zm.26-2.53h.13l-.13-.13Zm.13,2.79h.13c0-.09,0-.13.13-.13a.12.12,0,0,0-.13-.13.36.36,0,0,0-.26.13Zm0-4.59h.13l-.13-.13Zm.26,8.79a.27.27,0,0,0,0,.13.3.3,0,0,1,0,.13h.3l.32,0q.15,0,.24-.24a1.3,1.3,0,0,0-.3-.1,1.42,1.42,0,0,0-.3,0h-.15C108,22,107.9,22,107.9,22.09Zm.6-10.42a.23.23,0,0,0-.26.17h.26Zm0-.22h.21l-.13-.08Zm.21.61c0,.08,0,.12-.13.12v.13l.26-.25Zm0,9.09.13,0a.36.36,0,0,0,.13,0l0,0c.06,0,.12-.09.19-.28a1.06,1.06,0,0,0,.11-.36v0l-.08-.09Zm.13-5.45a.65.65,0,0,1,.36.2,2.6,2.6,0,0,1,.24.27v-.55c0-.12-.06-.18-.17-.18A.51.51,0,0,0,108.84,15.7ZM109,17q0,.21.3.21c0-.14-.1-.23-.3-.26Zm.34-3.56h.3a.21.21,0,0,0-.17-.22Zm.39-1.55s-.06,0-.09.09a.27.27,0,0,0,0,.13v.08l.34-.17,0-.09Zm-.09,10a.54.54,0,0,0,.3.51.65.65,0,0,1,0-.11.22.22,0,0,0,0-.1C110,21.94,109.84,21.84,109.61,21.84Zm.09-8.93.13-.13h-.13Zm.64,4.68a.33.33,0,0,0-.34.24,1.2,1.2,0,0,0-.09.45.33.33,0,0,0,.34-.24A1.29,1.29,0,0,0,110.34,17.59Zm-.43,2.53q0,.14.15.15a1.15,1.15,0,0,0,.24,0,1.06,1.06,0,0,0,.23,0c.1,0,.15-.08.15-.19l0,0a.63.63,0,0,1-.21-.05c-.09,0-.13-.06-.13-.08h-.13a.4.4,0,0,1-.26.13ZM110,12c-.06,0-.08,0-.08.13s0,.08.08.08.09,0,.09-.08S110.1,12,110,12Zm.13,4.2.13-.13h-.13Zm0,2.54c0,.17.07.25.21.25a.28.28,0,0,0,.26-.13.47.47,0,0,0-.34-.12Zm.26-6.14.34-.13v-.13l-.34-.13-.13.13v.13Zm0,2.27a.29.29,0,0,0-.13.26v.13c.08,0,.13-.11.13-.26Zm.47.39H111V15h-.13Zm.94-1.37a.19.19,0,0,0-.21.13h.21Zm-.13-2.19a.77.77,0,0,0,.11.39,1.16,1.16,0,0,1,.15.38c.09,0,.13,0,.13-.13v0a4.26,4.26,0,0,0,0-.47.74.74,0,0,0-.22-.43C111.76,11.37,111.71,11.47,111.71,11.67Zm7.64,10.42a6.39,6.39,0,0,1,.26.82,2.36,2.36,0,0,0,.26.69,1.38,1.38,0,0,0,.47.49,1.67,1.67,0,0,0,.9.19,1.45,1.45,0,0,0,1.11-.45,3.27,3.27,0,0,0,.69-1.11,5.51,5.51,0,0,0,.34-1.4,10.49,10.49,0,0,0,.09-1.28V13.9a16.62,16.62,0,0,0-.19-2,17.51,17.51,0,0,0-.61-2.68,8.29,8.29,0,0,0-1.09-2.36,2,2,0,0,0-1.67-1c-1,0-1.55.54-1.55,1.63s0,2.29.15,3.43.22,2.29.35,3.45.24,2.31.34,3.46.15,2.29.15,3.43Z"/></g></g></svg>